<svg width="40" height="40" viewBox="0 0 40 40" fill="none" xmlns="http://www.w3.org/2000/svg">
<path d="M9.06367 36.3156C8.86975 36.8327 9.13176 37.4091 9.64888 37.603C10.166 37.7969 10.7424 37.5349 10.9363 37.0178L9.06367 36.3156ZM10.9363 37.0178L19.8426 13.2678L17.9699 12.5656L9.06367 36.3156L10.9363 37.0178Z" fill="#222A41"/>
<path d="M29.0637 37.0178C29.2576 37.5349 29.834 37.7969 30.3511 37.603C30.8682 37.4091 31.1302 36.8327 30.9363 36.3156L29.0637 37.0178ZM30.9363 36.3156L22.0301 12.5656L20.1574 13.2678L29.0637 37.0178L30.9363 36.3156Z" fill="#222A41"/>
<path d="M19.9993 13.3334C21.8403 13.3334 23.3327 11.841 23.3327 10C23.3327 8.15907 21.8403 6.66669 19.9993 6.66669C18.1584 6.66669 16.666 8.15907 16.666 10C16.666 11.841 18.1584 13.3334 19.9993 13.3334Z" stroke="#222A41" stroke-width="2" stroke-linecap="round" stroke-linejoin="round"/>
<path d="M31.3083 27.5C28.0515 29.6089 24.1687 30.8333 19.9998 30.8333C15.8311 30.8333 11.9482 29.6089 8.69141 27.5" stroke="#222A41" stroke-width="2" stroke-linecap="round" stroke-linejoin="round"/>
<path d="M20 6.66665V3.33331" stroke="#222A41" stroke-width="2" stroke-linecap="round" stroke-linejoin="round"/>
</svg>
