<svg width="1920" height="330" viewBox="0 0 1920 330" fill="none" xmlns="http://www.w3.org/2000/svg">
<mask id="mask0_890_3749" style="mask-type:alpha" maskUnits="userSpaceOnUse" x="0" y="0" width="1920" height="330">
<rect width="1920" height="330" fill="white"/>
</mask>
<g mask="url(#mask0_890_3749)">
<g opacity="0.7">
<circle r="117.692" transform="matrix(-0.866025 -0.5 -0.5 0.866025 1491.6 235.018)" fill="url(#paint0_linear_890_3749)"/>
<circle opacity="0.8" r="77.1538" transform="matrix(-0.866025 -0.5 -0.5 0.866025 1352.85 321.015)" fill="url(#paint1_linear_890_3749)"/>
<circle r="24.5192" transform="matrix(-0.866025 -0.5 -0.5 0.866025 1442.45 80.181)" fill="url(#paint2_linear_890_3749)"/>
</g>
<g opacity="0.7">
<circle r="117.692" transform="matrix(0.866025 0.5 0.5 -0.866025 427.944 94.2379)" fill="url(#paint3_linear_890_3749)"/>
<circle opacity="0.8" r="77.1538" transform="matrix(0.866025 0.5 0.5 -0.866025 566.684 8.24032)" fill="url(#paint4_linear_890_3749)"/>
<circle r="24.5192" transform="matrix(0.866025 0.5 0.5 -0.866025 477.091 249.075)" fill="url(#paint5_linear_890_3749)"/>
</g>
</g>
<defs>
<linearGradient id="paint0_linear_890_3749" x1="117.692" y1="235.385" x2="117.692" y2="-1.0961e-07" gradientUnits="userSpaceOnUse">
<stop stop-color="#0270FE" stop-opacity="0.11"/>
<stop offset="1" stop-color="#0270FE" stop-opacity="0.03"/>
</linearGradient>
<linearGradient id="paint1_linear_890_3749" x1="77.1538" y1="0" x2="77.1538" y2="154.308" gradientUnits="userSpaceOnUse">
<stop stop-color="#0270FE" stop-opacity="0.03"/>
<stop offset="1" stop-color="#0270FE" stop-opacity="0.12"/>
</linearGradient>
<linearGradient id="paint2_linear_890_3749" x1="24.5192" y1="0" x2="24.5192" y2="49.0385" gradientUnits="userSpaceOnUse">
<stop stop-color="#026BFE" stop-opacity="0.03"/>
<stop offset="1" stop-color="#0270FE" stop-opacity="0.12"/>
</linearGradient>
<linearGradient id="paint3_linear_890_3749" x1="117.692" y1="235.385" x2="117.692" y2="-1.0961e-07" gradientUnits="userSpaceOnUse">
<stop stop-color="#0270FE" stop-opacity="0.11"/>
<stop offset="1" stop-color="#0270FE" stop-opacity="0.03"/>
</linearGradient>
<linearGradient id="paint4_linear_890_3749" x1="77.1538" y1="0" x2="77.1538" y2="154.308" gradientUnits="userSpaceOnUse">
<stop stop-color="#0270FE" stop-opacity="0.03"/>
<stop offset="1" stop-color="#0270FE" stop-opacity="0.12"/>
</linearGradient>
<linearGradient id="paint5_linear_890_3749" x1="24.5192" y1="0" x2="24.5192" y2="49.0385" gradientUnits="userSpaceOnUse">
<stop stop-color="#026BFE" stop-opacity="0.03"/>
<stop offset="1" stop-color="#0270FE" stop-opacity="0.12"/>
</linearGradient>
</defs>
</svg>
