<svg width="32" height="32" viewBox="0 0 32 32" fill="none" xmlns="http://www.w3.org/2000/svg">
<path d="M27.602 25.5181L27.9024 26.2426C28.4468 27.52 29.01 28.9499 29.3855 30.0175C28.2403 29.6553 26.6446 29.1024 25.2178 28.5495L24.5795 28.3017L23.9975 28.6639C21.6133 30.1701 18.8348 30.9708 16 30.9708C7.7209 30.9708 1 24.2407 1 15.9854C1 7.73009 7.7209 1 16 1C24.2791 1 31 7.73009 31 15.9854C31 19.2265 29.9862 22.2961 28.0713 24.8889L27.602 25.5181Z" stroke="#333333" stroke-width="2" stroke-linecap="round" stroke-linejoin="round"/>
<path d="M18.3277 16.3857C17.3327 17.2055 16.8258 18.1588 16.8258 19.2265V19.5506C16.7883 20.0081 16.4128 20.3704 15.9623 20.3704C15.5117 20.3704 15.0799 19.97 15.0799 19.4743C15.0799 19.4552 15.0799 19.4171 15.0799 19.3981C15.0799 18.3685 15.1738 17.6059 15.3803 17.1483C15.568 16.6908 16.0186 16.1379 16.7132 15.5087L17.4266 14.8605C18.384 13.9835 18.8534 13.1255 18.8534 12.2867C18.8534 11.5622 18.5905 10.9521 18.0837 10.4945C17.5768 10.0369 16.9197 9.78909 16.1312 9.78909C14.0849 9.78909 13.0524 10.9902 13.0336 13.3734V13.4115C13.0148 13.9072 12.6018 14.3267 12.0949 14.3267C11.588 14.3267 11.175 13.9263 11.1562 13.4115C11.1562 11.81 11.6068 10.5326 12.5079 9.59844C13.4091 8.66423 14.6481 8.20667 16.2063 8.20667C17.5768 8.20667 18.7032 8.58797 19.548 9.36965C20.4116 10.1513 20.8246 11.1427 20.8246 12.382C20.8246 13.6212 19.9798 14.9749 18.3089 16.3667L18.3277 16.3857Z" fill="#333333"/>
<path d="M15.9996 21.3618C16.3 21.3618 16.6192 21.4953 16.8257 21.705C17.051 21.9338 17.1636 22.2388 17.1636 22.5439C17.1636 22.8489 17.0322 23.173 16.8257 23.3827C16.6004 23.6115 16.3 23.7259 15.9996 23.7259C15.6993 23.7259 15.3801 23.5925 15.1736 23.3827C14.9483 23.154 14.8357 22.8489 14.8357 22.5439C14.8357 22.2388 14.9671 21.9147 15.1736 21.705C15.3989 21.4762 15.6993 21.3618 15.9996 21.3618Z" fill="#333333"/>
</svg>
