<svg width="20" height="20" viewBox="0 0 20 20" fill="none" xmlns="http://www.w3.org/2000/svg">
<path d="M10 20C4.47708 20 0 15.5229 0 10C0 4.47708 4.47708 0 10 0C15.5229 0 20 4.47708 20 10C20 15.5229 15.5229 20 10 20Z" fill="#00D649"/>
<path d="M8.58669 12.0229L6.07939 9.51536C5.71325 9.14922 5.11976 9.14922 4.75361 9.51536C4.38747 9.88151 4.38747 10.475 4.75361 10.8411L7.74268 13.8299C8.20908 14.2964 8.96507 14.2964 9.43122 13.8299L14.8695 8.39193C15.2356 8.02578 15.2356 7.43203 14.8695 7.06614C14.5034 6.7 13.9099 6.7 13.5437 7.06614L8.58695 12.0229H8.58669Z" fill="white"/>
</svg>
