<svg width="56" height="68" viewBox="0 0 56 68" fill="none" xmlns="http://www.w3.org/2000/svg">
<mask id="mask0_75_14688" style="mask-type:alpha" maskUnits="userSpaceOnUse" x="0" y="0" width="56" height="68">
<rect width="56" height="68" fill="#D9D9D9"/>
</mask>
<g mask="url(#mask0_75_14688)">
<path d="M50 67H10C7.23858 67 5 64.7614 5 62V6C5 3.23858 7.23858 1 10 1H30H40.3927C41.7786 1 43.1023 1.57523 44.048 2.58841L49.2652 8.17828L49.2689 8.18232L53.674 12.9545C54.5266 13.8781 55 15.089 55 16.3459V34V62C55 64.7614 52.7614 67 50 67Z" fill="white" stroke="#F64943" stroke-width="2"/>
<path d="M52.3198 11.4651L52.5115 12.4875C52.3001 12.3792 52.0817 12.2839 51.8574 12.2024C51.4894 12.0686 51.1008 12.0001 50.7093 12.0001H48.25H43.5V7.00008V4.00006V3.74676C43.5 3.4896 43.4587 3.23791 43.3806 2.99998L44.3858 2.99997L45.5154 4.17873L45.5221 4.1862L45.5762 4.24689C45.6233 4.29962 45.6917 4.37612 45.7772 4.47153C45.9483 4.66229 46.188 4.92886 46.4631 5.23229C47.0116 5.83733 47.7067 6.59573 48.278 7.1919L49 6.5L48.278 7.19191L51.1453 10.1839L52.3198 11.4651Z" stroke="#F64943" stroke-width="2"/>
<rect x="14" y="25" width="30" height="2" fill="#F64943"/>
<rect x="14" y="33" width="30" height="2" fill="#F64943"/>
<rect x="36" y="41" width="8" height="2" fill="#F64943"/>
<rect x="36" y="49" width="8" height="2" fill="#F64943"/>
<rect x="36" y="57" width="8" height="2" fill="#F64943"/>
<rect y="41" width="33" height="18" rx="3" fill="#F64943"/>
<path d="M3.97998 45.004V55H5.50598V51.108H8.09598C10.49 51.108 11.694 50.086 11.694 48.042C11.694 46.012 10.504 45.004 8.12398 45.004H3.97998ZM5.50598 46.306H7.99798C8.73998 46.306 9.28598 46.446 9.63598 46.726C9.98598 46.978 10.168 47.426 10.168 48.042C10.168 48.658 9.98598 49.106 9.64998 49.386C9.29998 49.666 8.75398 49.806 7.99798 49.806H5.50598V46.306Z" fill="white"/>
<path d="M13.1128 45.004V55H16.7248C18.3348 55 19.5528 54.552 20.3928 53.656C21.1908 52.788 21.5968 51.57 21.5968 50.002C21.5968 48.42 21.2048 47.202 20.4208 46.362C19.5808 45.452 18.3628 45.004 16.7528 45.004H13.1128ZM14.6388 46.306H16.4728C17.7328 46.306 18.6568 46.6 19.2448 47.202C19.8048 47.79 20.0988 48.714 20.0988 50.002C20.0988 51.262 19.8048 52.186 19.2308 52.788C18.6428 53.39 17.7048 53.698 16.4448 53.698H14.6388V46.306Z" fill="white"/>
<path d="M23.1479 45.004V55H24.674V50.52H29.6439V49.218H24.674V46.306H29.938V45.004H23.1479Z" fill="white"/>
</g>
</svg>
