<svg width="40" height="40" viewBox="0 0 40 40" fill="none" xmlns="http://www.w3.org/2000/svg">
<path d="M9.06367 36.3155C8.86975 36.8326 9.13176 37.409 9.64888 37.603C10.166 37.7969 10.7424 37.5349 10.9363 37.0177L9.06367 36.3155ZM10.9363 37.0177L19.8426 13.2677L17.9699 12.5655L9.06367 36.3155L10.9363 37.0177Z" fill="#0270FE"/>
<path d="M29.0637 37.0177C29.2576 37.5349 29.834 37.7969 30.3511 37.603C30.8682 37.409 31.1302 36.8326 30.9363 36.3155L29.0637 37.0177ZM30.9363 36.3155L22.0301 12.5655L20.1574 13.2677L29.0637 37.0177L30.9363 36.3155Z" fill="#0270FE"/>
<path d="M19.9993 13.3333C21.8403 13.3333 23.3327 11.8409 23.3327 9.99996C23.3327 8.15901 21.8403 6.66663 19.9993 6.66663C18.1584 6.66663 16.666 8.15901 16.666 9.99996C16.666 11.8409 18.1584 13.3333 19.9993 13.3333Z" stroke="#0270FE" stroke-width="2" stroke-linecap="round" stroke-linejoin="round"/>
<path d="M31.3083 27.4999C28.0515 29.6089 24.1687 30.8333 19.9998 30.8333C15.8311 30.8333 11.9482 29.6089 8.69141 27.4999" stroke="#0270FE" stroke-width="2" stroke-linecap="round" stroke-linejoin="round"/>
<path d="M20 6.66659V3.33325" stroke="#0270FE" stroke-width="2" stroke-linecap="round" stroke-linejoin="round"/>
</svg>
