<?xml version="1.0" encoding="utf-8"?>
<!-- Generator: Adobe Illustrator 23.0.0, SVG Export Plug-In . SVG Version: 6.00 Build 0)  -->
<svg version="1.1" id="图层_1" xmlns="http://www.w3.org/2000/svg" xmlns:xlink="http://www.w3.org/1999/xlink" x="0px" y="0px"
	 width="88px" height="88px" viewBox="0 0 88 88" style="enable-background:new 0 0 88 88;" xml:space="preserve">
<style type="text/css">
	.st0{fill:#6491F7;}
	.st1{fill:none;stroke:#6491F7;stroke-miterlimit:10;}
	.st2{fill:none;stroke:#6491F7;stroke-width:2;stroke-miterlimit:10;}
</style>
<path class="st0" d="M51.65,0.5h-5.7c-14.8,2.8-29.8,5.2-44.9,8c0,23.7,0,47.3,0,71c14.7,2.8,29.8,5.2,44.5,8h6 M33.55,57.9
	c-1.7,1-4,0-6,0c-1.3-6.6-2.7-13.6-4-20.2c-1,6.6-2.7,12.9-4,19.5c-2,0-3.7-0.3-5.7-0.3c-1.7-9-3.3-17.7-5-26.8c1.7,0,3.3-0.3,5-0.3
	c1,6.6,2,12.9,3,19.5c1.3-6.6,2.7-13.2,4-19.8c2,0,3.7-0.3,5.7-0.3c1.3,7,2.7,13.6,4,20.5c1-7,2.3-14.3,3.3-21.2c2,0,4-0.3,5.7-0.3
	C37.55,38.1,35.85,48.2,33.55,57.9 M51.25,76.7v-8l0.3-4.2v-5.2v-4.2v-5.2v-4.2v-4.9v-4.2v-5.2v-4.2v-4.9v-4.2v-7.3L51.25,76.7z"/>
<g>
	<path class="st1" d="M86.95,12.04v63.91c0,1.68-1.34,3.04-3,3.04h-35.4c-1.66,0-3-1.36-3-3.04V12.04c0-1.68,1.34-3.04,3-3.04h35.4
		C85.61,9,86.95,10.36,86.95,12.04z"/>
	<g>
		<line class="st2" x1="48.3" y1="30.36" x2="77.05" y2="30.36"/>
		<line class="st2" x1="48.3" y1="39.78" x2="77.05" y2="39.78"/>
		<line class="st2" x1="48.3" y1="49.21" x2="77.05" y2="49.21"/>
		<line class="st2" x1="48.3" y1="58.63" x2="77.05" y2="58.63"/>
	</g>
</g>
</svg>
