<?xml version="1.0" encoding="utf-8"?>
<!-- Generator: Adobe Illustrator 23.0.0, SVG Export Plug-In . SVG Version: 6.00 Build 0)  -->
<svg version="1.1" id="图层_1" xmlns="http://www.w3.org/2000/svg" xmlns:xlink="http://www.w3.org/1999/xlink" x="0px" y="0px"
	 width="88px" height="88px" viewBox="0 0 88 88" style="enable-background:new 0 0 88 88;" xml:space="preserve">
<style type="text/css">
	.st0{fill:#D34626;}
	.st1{fill:#D34826;}
	.st2{fill:#FFFFFF;}
	.st3{fill:none;stroke:#D34626;stroke-linecap:round;stroke-linejoin:round;stroke-miterlimit:10;}
</style>
<g>
	<path class="st0" d="M53.6,51c1.4,5.6,6.6,9.4,12.5,9.4c7.3,0,12.9-5.9,12.9-12.9H66.1V34.6c-5.9,0-11.1,4.2-12.5,9.4"/>
	<g>
		<g>
			<path class="st1" d="M68.5,45.7L68.5,45.7h12.9c0-3.8-1.4-7-4.2-9L68.5,45.7z"/>
		</g>
	</g>
	<g>
		<g>
			<path class="st1" d="M68.5,43.3l9-9c-2.4-2.4-5.9-3.8-9-3.8V43.3L68.5,43.3z"/>
		</g>
	</g>
	<path class="st0" d="M53.6,8.9V0.5h-5.9c-15.3,2.8-31,5.2-46.6,8c0,23.7,0,47.3,0,71c15.3,2.8,31,5.2,46.3,8h6.3v-8"/>
	<polygon class="st2" points="47.7,39.5 42.8,39.5 42.8,53.4 39,53.4 39,39.8 34.4,39.8 34.4,36.7 47.7,36.3 	"/>
	<path class="st2" d="M31.6,37.7c-1-0.7-2.8-1-4.9-1S23.2,37,22.2,37v16h3.5v-5.9c0,0,0.7,0,1,0c2.1,0,3.8-0.7,5.2-1.7
		c1-0.7,1.4-2.1,1.4-3.8C33.4,39.8,32.7,38.4,31.6,37.7z M26.8,44.3c-0.3,0-0.7,0-1,0v-4.9c0.3,0,0.7,0,1.4,0c1.7,0,2.8,0.7,2.8,2.1
		C29.9,43.3,28.5,44.3,26.8,44.3z"/>
	<path class="st2" d="M18.8,37.7c-1-0.7-2.8-1-4.9-1S10.4,37,9.4,37v16h3.5v-5.9c0,0,0.7,0,1,0c2.1,0,3.8-0.7,5.2-1.7
		c1-0.7,1.4-2.1,1.4-3.8C20.5,39.8,19.8,38.4,18.8,37.7z M13.9,44.3c-0.3,0-0.7,0-1,0v-4.9c0.3,0,0.7,0,1.4,0c1.7,0,2.8,0.7,2.8,2.1
		C17,43.3,15.6,44.3,13.9,44.3z"/>
	<g>
		<path class="st3" d="M86.9,75.8c0,2.09-1.69,3.78-3.78,3.78H53.88c-2.09,0-3.78-1.69-3.78-3.78V13.6c0-2.09,1.69-3.78,3.78-3.78
			h29.24c2.09,0,3.78,1.69,3.78,3.78v62.09"/>
	</g>
</g>
</svg>
