<svg width="40" height="40" viewBox="0 0 40 40" fill="none" xmlns="http://www.w3.org/2000/svg">
<mask id="mask0_1175_16619" style="mask-type:alpha" maskUnits="userSpaceOnUse" x="0" y="0" width="40" height="40">
<rect width="40" height="40" fill="white"/>
</mask>
<g mask="url(#mask0_1175_16619)">
<path d="M6.76398 19.0691L6.55444 20.0469L6.55445 20.0469L6.76398 19.0691ZM5.11444 17.4136L4.32185 16.8038L4.04121 17.1686L4.13578 17.6191L5.11444 17.4136ZM15.5473 20.9513L15.3378 21.9291L15.5589 21.9765L15.7789 21.9241L15.5473 20.9513ZM23.4062 19.0801L24.3926 19.2448L24.6409 17.7582L23.1746 18.1073L23.4062 19.0801ZM22.0981 26.9129L21.1118 26.7482L22.884 27.5313L22.0981 26.9129ZM6.97351 18.0913C6.52504 17.9952 6.1845 17.6435 6.0931 17.2081L4.13578 17.6191C4.38688 18.8151 5.32017 19.7824 6.55444 20.0469L6.97351 18.0913ZM15.7568 19.9735L6.9735 18.0913L6.55445 20.0469L15.3378 21.9291L15.7568 19.9735ZM23.1746 18.1073L15.3157 19.9785L15.7789 21.9241L23.6379 20.0529L23.1746 18.1073ZM23.0844 27.0776L24.3926 19.2448L22.4199 18.9154L21.1118 26.7482L23.0844 27.0776ZM23.0731 12.6766C24.4552 14.0587 25.0383 16.1346 24.7491 18.5825C24.4599 21.0307 23.2993 23.7692 21.3122 26.2945L22.884 27.5313C25.059 24.767 26.3958 21.6902 26.7353 18.8172C27.0747 15.9441 26.4179 13.193 24.4873 11.2624L23.0731 12.6766ZM7.64671 16.0447C10.3168 13.3746 13.425 11.7121 16.2536 11.1463C19.0904 10.579 21.5229 11.1264 23.0731 12.6766L24.4873 11.2624C22.3171 9.09226 19.1196 8.53354 15.8613 9.18519C12.5949 9.83848 9.14286 11.7201 6.23249 14.6305L7.64671 16.0447ZM5.90703 18.0234C6.42938 17.3444 7.00985 16.6816 7.64671 16.0447L6.23249 14.6305C5.53481 15.3282 4.89718 16.056 4.32185 16.8038L5.90703 18.0234Z" fill="#222A41"/>
<path d="M21.5931 33.8983L22.5709 33.6887L22.5709 33.6887L21.5931 33.8983ZM23.2481 35.5477L23.8579 36.3403L23.493 36.621L23.0424 36.5263L23.2481 35.5477ZM19.7109 25.1149L18.7331 25.3245L18.6857 25.1033L18.7381 24.8833L19.7109 25.1149ZM21.5821 17.256L21.3935 16.2739L22.9134 15.9821L22.5549 17.4876L21.5821 17.256ZM13.4277 18.8219L13.6163 19.8039L12.794 18.0483L13.4277 18.8219ZM22.5709 33.6887C22.6669 34.1371 23.0186 34.4776 23.4538 34.5691L23.0424 36.5263C21.8467 36.275 20.8797 35.3418 20.6153 34.1078L22.5709 33.6887ZM20.6887 24.9054L22.5709 33.6887L20.6153 34.1078L18.7331 25.3245L20.6887 24.9054ZM22.5549 17.4876L20.6837 25.3465L18.7381 24.8833L20.6093 17.0244L22.5549 17.4876ZM13.2391 17.8398L21.3935 16.2739L21.7707 18.2381L13.6163 19.8039L13.2391 17.8398ZM27.9854 17.5889C26.5755 16.179 24.4424 15.6001 21.9303 15.9315C19.4192 16.2628 16.6177 17.5012 14.0615 19.5954L12.794 18.0483C15.5896 15.758 18.7304 14.3363 21.6687 13.9487C24.606 13.5611 27.4294 14.2044 29.3996 16.1746L27.9854 17.5889ZM24.6173 33.0152C27.2874 30.3451 28.9499 27.237 29.5156 24.4084C30.083 21.5715 29.5355 19.139 27.9854 17.5889L29.3996 16.1746C31.5697 18.3448 32.1285 21.5424 31.4768 24.8006C30.8235 28.0671 28.9418 31.5191 26.0315 34.4294L24.6173 33.0152ZM22.6384 34.7551C23.3175 34.2327 23.9803 33.6522 24.6173 33.0152L26.0315 34.4294C25.3337 35.1272 24.6058 35.7649 23.8579 36.3403L22.6384 34.7551Z" fill="#222A41"/>
<ellipse cx="24.5286" cy="15.7118" rx="9.52647" ry="13.7605" transform="rotate(45 24.5286 15.7118)" fill="white" stroke="#222A41" stroke-width="2"/>
<path d="M11.0105 33.8036C10.7989 34.0152 10.4118 34.2334 9.84353 34.4091C9.29073 34.5799 8.64516 34.6864 8.00233 34.7292C7.3591 34.7721 6.75366 34.749 6.28651 34.6794C6.0522 34.6445 5.87423 34.6011 5.75315 34.5589C5.73264 34.5518 5.71541 34.5453 5.70112 34.5395C5.69536 34.5252 5.68882 34.508 5.68169 34.4875C5.63953 34.3664 5.59608 34.1884 5.56118 33.9541C5.49161 33.487 5.46852 32.8815 5.5114 32.2383C5.55426 31.5955 5.6607 30.9499 5.83156 30.3971C6.0072 29.8288 6.22539 29.4417 6.43699 29.2301C7.09997 28.5671 7.67616 27.9919 8.22742 27.528C8.77972 27.0632 9.24713 26.7628 9.67061 26.6103C10.0667 26.4678 10.436 26.4494 10.8447 26.5806C11.2791 26.7201 11.8256 27.0512 12.5075 27.7332C13.1825 28.4082 13.5032 28.9571 13.6344 29.3962C13.7592 29.8136 13.7339 30.2003 13.5809 30.6145C13.419 31.0527 13.1109 31.5277 12.6531 32.0728C12.1959 32.6172 11.6382 33.176 11.0105 33.8036Z" stroke="#222A41" stroke-width="2"/>
<circle cx="24.1914" cy="15.9996" r="3.5455" transform="rotate(45 24.1914 15.9996)" stroke="#222A41" stroke-width="2"/>
</g>
</svg>
